<svg width="16" height="16" viewBox="0 0 16 16" fill="none" xmlns="http://www.w3.org/2000/svg">
<path fill-rule="evenodd" clip-rule="evenodd" d="M15 8C15 11.866 11.866 15 8 15C4.13401 15 1 11.866 1 8C1 4.13401 4.13401 1 8 1C11.866 1 15 4.13401 15 8ZM8 12.3333C7.90961 12.3333 7.82342 12.3153 7.74481 12.2827L7.53297 12.1424L7.5286 12.1381L4.19526 8.80474C3.93491 8.54439 3.93491 8.12228 4.19526 7.86193C4.45561 7.60158 4.87772 7.60158 5.13807 7.86193L7.33333 10.0572L7.33333 4.33333C7.33333 3.96514 7.63181 3.66667 8 3.66667C8.36819 3.66667 8.66667 3.96514 8.66667 4.33333L8.66667 10.0572L10.8619 7.86193C11.1223 7.60158 11.5444 7.60158 11.8047 7.86193C12.0651 8.12228 12.0651 8.54439 11.8047 8.80474L8.472 12.1375L8.46703 12.1424C8.34675 12.2605 8.18188 12.3333 8 12.3333Z" fill="#1F1F1F"/>
</svg>
