<svg xmlns="http://www.w3.org/2000/svg" viewBox="0 0 30 20">
  <rect width="30" height="20" fill="#EE1C25"/>
  <g fill="#FFFF00">
    <path d="M5,2 L5.59,3.81 L7.5,3.81 L5.95,4.93 L6.54,6.74 L5,5.62 L3.46,6.74 L4.05,4.93 L2.5,3.81 L4.41,3.81 Z"/>
    <path d="M10,1.5 L10.18,2.05 L10.76,2.05 L10.29,2.4 L10.47,2.95 L10,2.6 L9.53,2.95 L9.71,2.4 L9.24,2.05 L9.82,2.05 Z"/>
    <path d="M12,3.5 L12.18,4.05 L12.76,4.05 L12.29,4.4 L12.47,4.95 L12,4.6 L11.53,4.95 L11.71,4.4 L11.24,4.05 L11.82,4.05 Z"/>
    <path d="M12,6 L12.18,6.55 L12.76,6.55 L12.29,6.9 L12.47,7.45 L12,7.1 L11.53,7.45 L11.71,6.9 L11.24,6.55 L11.82,6.55 Z"/>
    <path d="M10,8 L10.18,8.55 L10.76,8.55 L10.29,8.9 L10.47,9.45 L10,9.1 L9.53,9.45 L9.71,8.9 L9.24,8.55 L9.82,8.55 Z"/>
  </g>
</svg>
