<svg xmlns="http://www.w3.org/2000/svg" viewBox="0 0 24 16">
  <rect width="24" height="16" fill="#fff"/>
  <g transform="translate(12 8) rotate(-33.7)">
    <circle r="4" fill="#CD2E3A"/>
    <path d="M-4,0 A 2,2 0 0 1 0,0 A 2,2 0 0 0 4,0 A 4,4 0 0 1 -4,0 Z" fill="#0047A0"/>
  </g>
  <g fill="#000" transform="translate(12 8) rotate(-33.7)">
    <g transform="translate(-6 0)"><rect x="-1" y="-0.4" width="2" height="0.25"/><rect x="-1" y="-0.05" width="2" height="0.25"/><rect x="-1" y="0.3" width="2" height="0.25"/></g>
    <g transform="translate(6 0)"><rect x="-1" y="-0.4" width="2" height="0.25"/><rect x="-1" y="0.3" width="2" height="0.25"/><rect x="-1" y="-0.05" width="0.85" height="0.25"/><rect x="0.15" y="-0.05" width="0.85" height="0.25"/></g>
    <g transform="translate(0 6)"><rect x="-1" y="-0.4" width="0.85" height="0.25"/><rect x="0.15" y="-0.4" width="0.85" height="0.25"/><rect x="-1" y="-0.05" width="0.85" height="0.25"/><rect x="0.15" y="-0.05" width="0.85" height="0.25"/><rect x="-1" y="0.3" width="2" height="0.25"/></g>
    <g transform="translate(0 -6)"><rect x="-1" y="-0.4" width="2" height="0.25"/><rect x="-1" y="-0.05" width="0.85" height="0.25"/><rect x="0.15" y="-0.05" width="0.85" height="0.25"/><rect x="-1" y="0.3" width="0.85" height="0.25"/><rect x="0.15" y="0.3" width="0.85" height="0.25"/></g>
  </g>
</svg>
